<svg xmlns="http://www.w3.org/2000/svg" xmlns:xlink="http://www.w3.org/1999/xlink"><defs><style>
    .sprite-symbol-usage {display: none;}
    .sprite-symbol-usage:target {display: inline;}
  </style><symbol viewBox="0 0 12 7.5" id="arrow-down"><path d="M1.5 0 0 1.5l6 6 6-6L10.5 0 6 4.5Z" fill="currentColor" fill-rule="evenodd" /></symbol><symbol viewBox="0 0 25 25" fill="currentcolor" id="arrow-r"><path d="M21.875 12.5H3.125m18.75 0-6.25-6.25m6.25 6.25-6.25 6.25" stroke="currentcolor" stroke-width="2" stroke-linecap="round" stroke-linejoin="round" /></symbol><symbol fill="none" viewBox="0 0 42 42" id="arrow_bottom"><path d="M21 41.313C9.8 41.313.687 32.2.687 21S9.8.687 21 .687 41.313 9.8 41.313 21 32.2 41.313 21 41.313Zm0-3.126c9.51 0 17.188-7.676 17.188-17.187 0-9.51-7.677-17.188-17.188-17.188C11.49 3.813 3.812 11.49 3.812 21c0 9.51 7.677 17.188 17.188 17.188Zm0-6.054-1.125-1.125-8.884-8.885 2.197-2.248 6.25 6.25V10.062h3.125v16.063l6.25-6.25 2.196 2.25-8.886 8.884-1.125 1.125.002-.001Z" fill="#fff" /></symbol><symbol fill="none" viewBox="0 0 42 42" id="arrow_top"><path d="M21 .688C9.8.688.687 9.8.687 21 .688 32.2 9.8 41.313 21 41.313S41.313 32.2 41.313 21 32.2.687 21 .687Zm0 3.125c9.51 0 17.188 7.676 17.188 17.187 0 9.51-7.677 17.188-17.188 17.188-9.51 0-17.188-7.677-17.188-17.188C3.813 11.49 11.49 3.812 21 3.812Zm0 6.054-1.125 1.125-8.884 8.885 2.197 2.248 6.25-6.25v16.063h3.125V15.875l6.25 6.25 2.196-2.25-8.886-8.884-1.125-1.125.002.001Z" fill="#fff" /></symbol><symbol viewBox="0 0 24 24" fill="none" id="article-icon"><path d="M12 10.833h5.833M12 6.167h5.833M7.333 15.5V2.2a.7.7 0 0 1 .7-.7H21.8a.7.7 0 0 1 .7.7v15.633a4.667 4.667 0 0 1-4.667 4.667" stroke="#fff" stroke-width="2.5" stroke-linecap="round" stroke-linejoin="round" /><path d="M3.833 15.5h8.634c.386 0 .703.312.735.697.143 1.77.875 6.303 4.631 6.303H5A3.5 3.5 0 0 1 1.5 19v-1.167A2.333 2.333 0 0 1 3.833 15.5Z" stroke="#fff" stroke-width="2.5" stroke-linecap="round" stroke-linejoin="round" /></symbol><symbol viewBox="0 0 26 26" fill="currentcolor" id="basket"><path d="M18.417 19.5a2.167 2.167 0 1 1-2.167 2.167 2.16 2.16 0 0 1 2.167-2.167ZM1.083 2.167h3.543l1.018 2.166h16.023a1.083 1.083 0 0 1 1.083 1.084c0 .184-.054.368-.13.541l-3.878 7.01a2.178 2.178 0 0 1-1.896 1.115H8.775L7.8 15.85l-.033.13a.27.27 0 0 0 .271.271h12.545v2.167h-13a2.166 2.166 0 0 1-2.166-2.167c0-.38.097-.737.26-1.04l1.473-2.654-3.9-8.223H1.083V2.167Zm6.5 17.333a2.167 2.167 0 1 1-2.166 2.167A2.16 2.16 0 0 1 7.583 19.5Zm9.75-7.583L20.345 6.5H6.652l2.556 5.417h8.125Z" /></symbol><symbol viewBox="0 0 24 24" fill="none" id="blog-arrow"><path d="M21.75 12c0 5.376-4.374 9.75-9.75 9.75S2.25 17.376 2.25 12 6.624 2.25 12 2.25s9.75 4.374 9.75 9.75Zm-1.5 0A8.239 8.239 0 0 0 12 3.75 8.239 8.239 0 0 0 3.75 12 8.239 8.239 0 0 0 12 20.25 8.239 8.239 0 0 0 20.25 12Zm-2.906 0-.54.54-4.265 4.265-1.079-1.055 3-3H6.75v-1.5h7.71l-3-3 1.08-1.054 4.265 4.265.54.54-.001-.001Z" fill="#37A18E" /></symbol><symbol viewBox="0 0 35 35" fill="none" id="blog-icon"><path d="M17.5 16.042h7.291M17.5 10.208h7.291M11.666 21.875V5.25a.875.875 0 0 1 .875-.875H29.75a.875.875 0 0 1 .875.875v19.542a5.833 5.833 0 0 1-5.834 5.833" stroke="#fff" stroke-width="2" stroke-linecap="round" stroke-linejoin="round" /><path d="M7.292 21.875h10.791c.483 0 .88.39.92.87.178 2.214 1.093 7.88 5.789 7.88H8.75a4.375 4.375 0 0 1-4.375-4.375v-1.458a2.917 2.917 0 0 1 2.917-2.917Z" stroke="#fff" stroke-width="2" stroke-linecap="round" stroke-linejoin="round" /></symbol><symbol viewBox="0 0 24 24" fill="currentcolor" id="card"><path d="M1.5 17.625a2.625 2.625 0 0 0 2.625 2.625h15.75a2.625 2.625 0 0 0 2.625-2.625v-7.219h-21v7.219Zm3.094-3.563A1.406 1.406 0 0 1 6 12.656h2.25a1.406 1.406 0 0 1 1.406 1.406V15a1.406 1.406 0 0 1-1.406 1.406H6A1.406 1.406 0 0 1 4.594 15v-.938ZM19.875 3.75H4.125A2.625 2.625 0 0 0 1.5 6.375v1.219h21V6.375a2.625 2.625 0 0 0-2.625-2.625Z" /></symbol><symbol viewBox="0 0 24 24" fill="currentcolor" id="clock"><path d="M12 2a10 10 0 1 0 0 20 10 10 0 0 0 0-20Zm4.2 14.2L11 13V7h1.5v5.2l4.5 2.7-.8 1.3Z" /></symbol><symbol viewBox="0 0 16 16" fill="none" id="conf-arr"><path d="M10.667 5.6 4.75 11.534a.65.65 0 0 1-.475.2.647.647 0 0 1-.475-.2.65.65 0 0 1-.2-.476c0-.183.067-.342.2-.474l5.933-5.917H4.667a.646.646 0 0 1-.476-.192A.642.642 0 0 1 4 4c0-.189.064-.347.192-.475a.642.642 0 0 1 .475-.192h6.666c.19 0 .348.064.476.192A.642.642 0 0 1 12 4v6.667a.646.646 0 0 1-.192.475.643.643 0 0 1-.475.192.646.646 0 0 1-.475-.192.642.642 0 0 1-.191-.475V5.6Z" fill="#fff" /></symbol><symbol viewBox="0 0 24 24" fill="currentcolor" id="customer"><path d="M17.9 17.39c-.26-.8-1.01-1.39-1.9-1.39h-1v-3a1 1 0 0 0-1-1H8v-2h2a1 1 0 0 0 1-1V7h2a2 2 0 0 0 2-2v-.41a7.984 7.984 0 0 1 2.9 12.8ZM11 19.93c-3.95-.49-7-3.85-7-7.93 0-.62.08-1.22.21-1.79L9 15v1a2 2 0 0 0 2 2m1-16a10 10 0 1 0 0 20 10 10 0 0 0 0-20Z" /></symbol><symbol viewBox="0 0 24 24" fill="currentcolor" id="invoice"><path fill-rule="evenodd" clip-rule="evenodd" d="M4 3a1 1 0 0 1 1-1h14a1 1 0 0 1 1 1v18a1 1 0 0 1-1.65.76l-1.033-.885a1 1 0 0 0-1.301 0l-1.032.884a1 1 0 0 1-1.302 0l-1.031-.884a1 1 0 0 0-1.302 0l-1.031.884a1 1 0 0 1-1.302 0l-1.032-.884a1 1 0 0 0-1.301 0l-1.032.884A1 1 0 0 1 4 21V3Zm5 3a1 1 0 0 0 0 2h6a1 1 0 1 0 0-2H9Zm0 4a1 1 0 0 0 0 2h6a1 1 0 0 0 0-2H9Zm1 5a1 1 0 0 1 1-1h4a1 1 0 0 1 0 2h-4a1 1 0 0 1-1-1Z" /></symbol><symbol viewBox="0 0 24 24" fill="currentcolor" id="mail"><path d="M4 20c-.55 0-1.021-.196-1.413-.588A1.922 1.922 0 0 1 2 18V6c0-.55.196-1.021.588-1.413A1.922 1.922 0 0 1 4 4h16c.55 0 1.021.196 1.413.588.392.392.588.863.587 1.412v12c0 .55-.196 1.021-.588 1.413A1.922 1.922 0 0 1 20 20H4Zm8-7 8-5V6l-8 5-8-5v2l8 5Z" /></symbol><symbol viewBox="0 0 24 24" fill="currentcolor" id="mark"><path d="M12 11.5a2.5 2.5 0 1 1 0-5 2.5 2.5 0 0 1 0 5ZM12 2a7 7 0 0 0-7 7c0 5.25 7 13 7 13s7-7.75 7-13a7 7 0 0 0-7-7Z" /></symbol><symbol viewBox="0 0 34 34" fill="none" id="panel-info"><path d="M15.583 24.083h2.834v-8.5h-2.834v8.5ZM17 12.75c.401 0 .738-.136 1.01-.408.272-.272.408-.608.407-1.009 0-.401-.136-.738-.408-1.01A1.365 1.365 0 0 0 17 9.917c-.401 0-.738.136-1.01.408a1.365 1.365 0 0 0-.407 1.008c0 .402.136.738.408 1.01.272.272.609.408 1.009.407Zm0 18.417c-1.96 0-3.801-.373-5.525-1.117a14.33 14.33 0 0 1-4.498-3.027 14.297 14.297 0 0 1-3.027-4.498C3.206 20.8 2.834 18.96 2.833 17c0-1.96.372-3.802 1.117-5.525a14.328 14.328 0 0 1 3.027-4.498 14.297 14.297 0 0 1 4.498-3.027C13.199 3.206 15.04 2.834 17 2.833c1.96 0 3.801.372 5.525 1.117a14.328 14.328 0 0 1 4.498 3.027 14.316 14.316 0 0 1 3.029 4.498c.744 1.723 1.116 3.565 1.115 5.525 0 1.96-.372 3.801-1.117 5.525a14.329 14.329 0 0 1-3.027 4.498 14.317 14.317 0 0 1-4.498 3.029c-1.724.744-3.565 1.116-5.525 1.115Z" fill="#EE8221" /></symbol><symbol viewBox="0 0 22 22" fill="currentcolor" id="phone"><g clip-path="url(#phone_a)"><path d="M13.376 16.1c-.352-.726-.808-1.254-1.594-.932l-1.551.576c-1.242.576-1.86 0-2.48-.864L4.964 8.53c-.348-.727-.168-1.41.619-1.732l2.17-.864c.786-.322.661-1.006.309-1.732L6.2.74C5.847.013 5.125-.163 4.34.159 2.767.812 1.465 1.826.623 3.334-.408 5.178.107 7.74.313 8.817c.207 1.079.929 2.965 1.861 4.907.933 1.942 1.749 3.468 2.48 4.331.73.864 2.479 3.227 4.649 3.752 1.779.43 3.695.068 5.268-.58.786-.323.79-1.006.438-1.736l-1.633-3.39Zm4.392-11.025h-2.54l3.386 3.386H11v1.692h7.614l-3.382 3.382h2.54l4.232-4.232-4.236-4.228Z" /></g><defs></defs></symbol><clipPath id="phone_a"><rect fill="#fff" /></clipPath><symbol fill="none" viewBox="0 0 54 54" id="play"><g mask="url(#play_a)"><path d="M0 0h54v54H0V0Z" fill="#fff" /></g></symbol><mask id="play_a" style="mask-type:luminance" maskUnits="userSpaceOnUse" x="2" y="2" width="50" height="50"><path d="M27 49.5c12.427 0 22.5-10.073 22.5-22.5S39.427 4.5 27 4.5 4.5 14.573 4.5 27 14.573 49.5 27 49.5Z" fill="#fff" stroke="#fff" stroke-width="4" stroke-linejoin="round" /><path d="M22.5 27v-7.794l6.75 3.897L36 27l-6.75 3.897-6.75 3.897V27Z" fill="#000" stroke="#000" stroke-width="4" stroke-linejoin="round" /></mask><symbol viewBox="0 0 18 18" fill="none" id="plus"><path d="M13.5 7.5h-3v-3a1.5 1.5 0 1 0-3 0l.053 3H4.5a1.5 1.5 0 0 0 0 3l3.053-.053L7.5 13.5a1.5 1.5 0 0 0 3 0v-3.053l3 .053a1.5 1.5 0 1 0 0-3Z" fill="#fff" /></symbol><symbol viewBox="0 0 28 28" fill="currentcolor" id="remove"><g clip-path="url(#remove_a)"><path d="m15.097 14 6.447-6.448a.778.778 0 0 0-1.096-1.096L14 12.903 7.552 6.448a.781.781 0 1 0-1.104 1.104L12.903 14l-6.455 6.448a.779.779 0 1 0 1.096 1.096L14 15.097l6.448 6.447a.778.778 0 0 0 1.096-1.096L15.097 14Z" /></g><defs></defs></symbol><clipPath id="remove_a"><rect fill="#fff" /></clipPath><symbol fill="none" viewBox="0 0 16 16" id="rights-arr"><path d="M10.667 5.6 4.75 11.534a.65.65 0 0 1-.475.2.647.647 0 0 1-.475-.2.65.65 0 0 1-.2-.476c0-.183.067-.342.2-.474l5.933-5.917H4.667a.646.646 0 0 1-.476-.192A.642.642 0 0 1 4 4c0-.189.064-.347.192-.475a.642.642 0 0 1 .475-.192h6.666c.19 0 .348.064.476.192A.642.642 0 0 1 12 4v6.667a.646.646 0 0 1-.192.475.643.643 0 0 1-.475.192.646.646 0 0 1-.475-.192.642.642 0 0 1-.191-.475V5.6Z" fill="#fff" /></symbol><symbol viewBox="0 0 14 14" fill="none" id="slider-prod-icon"><path d="M2.916 1.75v10.5a.585.585 0 0 0 .916.48l7.583-5.25c.315-.218.315-.741 0-.96L3.832 1.27a.583.583 0 0 0-.916.48Z" fill="#43A75C" /></symbol><symbol viewBox="0 0 17 17" fill="none" id="star"><g clip-path="url(#star_a)"><path fill-rule="evenodd" clip-rule="evenodd" d="M9.143 1.12a.708.708 0 0 0-1.286 0L5.824 5.526l-4.817.571a.708.708 0 0 0-.398 1.224l3.562 3.293-.945 4.76a.709.709 0 0 0 1.04.756L8.5 13.76l4.234 2.37a.708.708 0 0 0 1.041-.756l-.946-4.759 3.563-3.294a.709.709 0 0 0-.399-1.224l-4.818-.572L9.143 1.12Z" fill="#43A75C" /></g><defs></defs></symbol><clipPath id="star_a"><rect fill="#fff" /></clipPath><symbol fill="none" viewBox="0 0 34 34" id="telega-white"><path d="M17 2.833C9.18 2.833 2.833 9.18 2.833 17c0 7.82 6.347 14.167 14.167 14.167 7.82 0 14.167-6.347 14.167-14.167C31.167 9.18 24.82 2.834 17 2.834Zm6.573 9.634c-.212 2.238-1.133 7.678-1.6 10.186-.199 1.062-.595 1.416-.964 1.459-.822.07-1.445-.538-2.238-1.063-1.247-.821-1.955-1.331-3.16-2.125-1.402-.92-.495-1.43.312-2.252.213-.213 3.84-3.514 3.91-3.811a.283.283 0 0 0-.07-.255c-.086-.07-.199-.043-.298-.028-.128.028-2.11 1.346-5.978 3.952-.567.383-1.077.581-1.53.567-.51-.014-1.474-.284-2.196-.524-.893-.284-1.587-.44-1.53-.935.028-.255.382-.51 1.048-.78 4.137-1.799 6.885-2.989 8.26-3.555 3.938-1.644 4.745-1.927 5.284-1.927.113 0 .382.028.552.17.142.113.184.27.198.383-.014.085.014.34 0 .538Z" fill="#fff" /></symbol><symbol viewBox="0 0 20 20" fill="currentcolor" id="telegram"><g clip-path="url(#telegram_a)"><path d="m17.41 1.672.087-.005.109.006.075.014.102.029.09.038.083.048.075.056.068.062.043.05.069.096.043.08c.04.083.064.172.075.263l.004.089a.831.831 0 0 1-.02.183l-.029.102-5.443 15.065a1.291 1.291 0 0 1-1.81.587 1.29 1.29 0 0 1-.472-.457l-.054-.106-2.793-5.585-5.559-2.78a1.292 1.292 0 0 1-.748-1.05L1.4 8.334c0-.466.25-.893.7-1.141l.117-.059 15.015-5.421.088-.025.09-.015Z" /></g><defs></defs></symbol><clipPath id="telegram_a"><rect fill="#fff" /></clipPath><symbol viewBox="0 0 34 34" fill="none" id="telegram-2"><path d="M17 2.833C9.18 2.833 2.833 9.18 2.833 17c0 7.82 6.347 14.167 14.167 14.167 7.82 0 14.167-6.347 14.167-14.167C31.167 9.18 24.82 2.834 17 2.834Zm6.573 9.634c-.212 2.238-1.133 7.678-1.6 10.186-.199 1.062-.595 1.416-.964 1.459-.822.07-1.445-.538-2.238-1.063-1.247-.821-1.955-1.331-3.16-2.125-1.402-.92-.495-1.43.312-2.252.213-.213 3.84-3.514 3.91-3.811a.282.282 0 0 0-.07-.255c-.086-.07-.199-.043-.298-.028-.128.028-2.11 1.346-5.978 3.952-.567.383-1.077.581-1.53.567-.51-.014-1.474-.284-2.196-.524-.893-.284-1.587-.44-1.53-.935.028-.255.382-.51 1.048-.78 4.137-1.799 6.885-2.989 8.26-3.555 3.938-1.644 4.745-1.927 5.284-1.927.113 0 .382.028.552.17.142.113.184.27.198.383-.014.085.014.34 0 .538Z" fill="#40B29E" /></symbol><symbol viewBox="0 0 30 30" fill="none" id="tips-arr"><circle cx="15" cy="15" r="15" fill="#fff" /><path d="M11.917 9.75v10.5a.584.584 0 0 0 .915.48l7.584-5.25c.314-.217.314-.741 0-.96l-7.584-5.25a.582.582 0 0 0-.915.48Z" fill="#F79238" /></symbol><symbol viewBox="0 0 14 14" fill="currentColor" id="up-arrow"><path d="M12.25 2.917H1.75a.584.584 0 0 0-.48.915l5.25 7.583c.218.315.741.315.96 0l5.25-7.583a.582.582 0 0 0-.48-.915Z" /></symbol><symbol viewBox="0 0 34 34" fill="none" id="whatsapp"><path d="M17.001 2.833c7.825 0 14.167 6.343 14.167 14.167s-6.342 14.167-14.167 14.167a14.1 14.1 0 0 1-7.125-1.92l-7.036 1.92 1.916-7.038A14.1 14.1 0 0 1 2.835 17C2.835 9.176 9.177 2.834 17 2.834Zm-4.828 7.509-.283.011a1.36 1.36 0 0 0-.527.142 1.832 1.832 0 0 0-.416.323c-.17.16-.267.299-.37.433a3.868 3.868 0 0 0-.802 2.378c.003.694.184 1.37.467 2.001.58 1.278 1.533 2.631 2.791 3.885.303.302.601.605.921.887a13.385 13.385 0 0 0 5.44 2.898l.805.123c.262.015.524-.005.787-.018a2.82 2.82 0 0 0 1.18-.327c.186-.096.367-.2.543-.312 0 0 .061-.04.177-.127a3.25 3.25 0 0 0 .468-.409c.117-.121.22-.264.297-.427.11-.231.221-.672.267-1.039.034-.28.024-.433.02-.528-.006-.152-.132-.309-.27-.376l-.824-.37s-1.233-.536-1.986-.88a.706.706 0 0 0-.25-.057.684.684 0 0 0-.535.18c-.007-.003-.102.078-1.127 1.319a.496.496 0 0 1-.52.184 2.016 2.016 0 0 1-.271-.094c-.176-.073-.237-.102-.357-.153a8.535 8.535 0 0 1-2.232-1.42c-.178-.156-.344-.326-.514-.49a8.914 8.914 0 0 1-1.445-1.797l-.083-.135a1.308 1.308 0 0 1-.145-.29c-.054-.208.086-.375.086-.375s.345-.377.505-.581c.156-.199.287-.391.372-.529.167-.269.22-.545.132-.76-.397-.968-.807-1.933-1.23-2.89-.083-.19-.331-.326-.556-.353-.077-.009-.153-.017-.23-.023-.19-.01-.38-.008-.57.006l.284-.012.001.002Z" fill="#60C066" /></symbol><symbol fill="none" viewBox="0 0 34 34" id="whatsapp-white"><path d="M17.001 2.833c7.825 0 14.167 6.343 14.167 14.167s-6.342 14.167-14.167 14.167a14.1 14.1 0 0 1-7.125-1.92l-7.036 1.92 1.916-7.038A14.1 14.1 0 0 1 2.835 17C2.835 9.176 9.177 2.834 17 2.834Zm-4.828 7.509-.283.011a1.36 1.36 0 0 0-.527.142 1.832 1.832 0 0 0-.416.323c-.17.16-.267.299-.37.433a3.868 3.868 0 0 0-.802 2.378c.003.694.184 1.37.467 2.001.58 1.278 1.533 2.631 2.791 3.885.303.302.601.605.921.887a13.385 13.385 0 0 0 5.44 2.898l.805.123c.262.015.524-.005.787-.018a2.82 2.82 0 0 0 1.18-.327c.186-.096.367-.2.543-.312 0 0 .061-.04.177-.127a3.25 3.25 0 0 0 .468-.409c.117-.121.22-.264.297-.427.11-.231.221-.672.267-1.039.034-.28.024-.433.02-.528-.006-.152-.132-.309-.27-.376l-.824-.37s-1.233-.536-1.986-.88a.706.706 0 0 0-.25-.057.684.684 0 0 0-.535.18c-.007-.003-.102.078-1.127 1.319a.496.496 0 0 1-.52.184 2.016 2.016 0 0 1-.271-.094c-.176-.073-.237-.102-.357-.153a8.535 8.535 0 0 1-2.232-1.42c-.178-.156-.344-.326-.514-.49a8.914 8.914 0 0 1-1.445-1.797l-.083-.135a1.308 1.308 0 0 1-.145-.29c-.054-.208.086-.375.086-.375s.345-.377.505-.581c.156-.199.287-.391.372-.529.167-.269.22-.545.132-.76-.397-.968-.807-1.933-1.23-2.89-.083-.19-.331-.326-.556-.353-.077-.009-.153-.017-.23-.023-.19-.01-.38-.008-.57.006l.284-.012.001.002Z" fill="#fff" /></symbol></defs><use id="arrow-down-usage" xlink:href="#arrow-down" class="sprite-symbol-usage" /><use id="arrow-r-usage" xlink:href="#arrow-r" class="sprite-symbol-usage" /><use id="arrow_bottom-usage" xlink:href="#arrow_bottom" class="sprite-symbol-usage" /><use id="arrow_top-usage" xlink:href="#arrow_top" class="sprite-symbol-usage" /><use id="article-icon-usage" xlink:href="#article-icon" class="sprite-symbol-usage" /><use id="basket-usage" xlink:href="#basket" class="sprite-symbol-usage" /><use id="blog-arrow-usage" xlink:href="#blog-arrow" class="sprite-symbol-usage" /><use id="blog-icon-usage" xlink:href="#blog-icon" class="sprite-symbol-usage" /><use id="card-usage" xlink:href="#card" class="sprite-symbol-usage" /><use id="clock-usage" xlink:href="#clock" class="sprite-symbol-usage" /><use id="conf-arr-usage" xlink:href="#conf-arr" class="sprite-symbol-usage" /><use id="customer-usage" xlink:href="#customer" class="sprite-symbol-usage" /><use id="invoice-usage" xlink:href="#invoice" class="sprite-symbol-usage" /><use id="mail-usage" xlink:href="#mail" class="sprite-symbol-usage" /><use id="mark-usage" xlink:href="#mark" class="sprite-symbol-usage" /><use id="panel-info-usage" xlink:href="#panel-info" class="sprite-symbol-usage" /><use id="phone-usage" xlink:href="#phone" class="sprite-symbol-usage" /><use id="play-usage" xlink:href="#play" class="sprite-symbol-usage" /><use id="plus-usage" xlink:href="#plus" class="sprite-symbol-usage" /><use id="remove-usage" xlink:href="#remove" class="sprite-symbol-usage" /><use id="rights-arr-usage" xlink:href="#rights-arr" class="sprite-symbol-usage" /><use id="slider-prod-icon-usage" xlink:href="#slider-prod-icon" class="sprite-symbol-usage" /><use id="star-usage" xlink:href="#star" class="sprite-symbol-usage" /><use id="telega-white-usage" xlink:href="#telega-white" class="sprite-symbol-usage" /><use id="telegram-usage" xlink:href="#telegram" class="sprite-symbol-usage" /><use id="telegram-2-usage" xlink:href="#telegram-2" class="sprite-symbol-usage" /><use id="tips-arr-usage" xlink:href="#tips-arr" class="sprite-symbol-usage" /><use id="up-arrow-usage" xlink:href="#up-arrow" class="sprite-symbol-usage" /><use id="whatsapp-usage" xlink:href="#whatsapp" class="sprite-symbol-usage" /><use id="whatsapp-white-usage" xlink:href="#whatsapp-white" class="sprite-symbol-usage" /></svg>