<svg width="10" height="10" viewBox="0 0 10 10" fill="none" xmlns="http://www.w3.org/2000/svg">
<g id="bxs:up-arrow" clip-path="url(#clip0_126_264)">
<path id="Vector" d="M2.08341 1.24991L2.08341 8.74991C2.08365 8.82585 2.10459 8.90028 2.14399 8.96519C2.18338 9.03011 2.23973 9.08306 2.30697 9.11833C2.37422 9.1536 2.44981 9.16987 2.52561 9.16537C2.60141 9.16088 2.67455 9.1358 2.73716 9.09283L8.15383 5.34283C8.37841 5.18741 8.37841 4.81325 8.15383 4.65741L2.73716 0.907414C2.67469 0.864007 2.60151 0.838553 2.52558 0.833816C2.44965 0.829079 2.37388 0.84524 2.30649 0.880544C2.2391 0.915849 2.18268 0.968945 2.14335 1.03407C2.10402 1.09919 2.08329 1.17384 2.08341 1.24991Z" fill="#F79238"/>
</g>
<defs>
<clipPath id="clip0_126_264">
<rect width="10" height="10" fill="white" transform="translate(10) rotate(90)"/>
</clipPath>
</defs>
</svg>
