<svg width="234" height="50" viewBox="0 0 234 50" fill="none" xmlns="http://www.w3.org/2000/svg">
<g id="logo_nt" clip-path="url(#clip0_57_330)">
<g id="Group">
<path id="Vector" d="M61.0909 2.61415V48.4359C61.0909 48.7656 60.7388 48.9854 60.2106 48.9854C59.6823 48.9854 59.3302 48.7656 59.3302 48.4359V2.6691C59.3302 2.33944 59.6823 2.11967 60.2106 2.11967C60.7388 2.11967 61.0909 2.33945 61.0909 2.61415Z" fill="white"/>
</g>
<g id="Group_2">
<g id="Group_3" opacity="0.89">
<g id="Group_4">
<path id="Vector_2" fill-rule="evenodd" clip-rule="evenodd" d="M5.18256 7.08301L1.39795 10.882L7.1437 16.648L10.9283 12.8516L5.18256 7.08301Z" fill="#F6851F"/>
</g>
<g id="Group_5">
<path id="Vector_3" fill-rule="evenodd" clip-rule="evenodd" d="M10.7451 12.6648C9.70093 11.6164 8.00994 11.6164 6.96832 12.6622C5.92671 13.7079 5.92671 15.405 6.97092 16.4534C8.01513 17.5017 9.70613 17.5017 10.7477 16.456C11.7919 15.4102 11.7893 13.7131 10.7451 12.6648Z" fill="#F6851F"/>
</g>
<g id="Group_6">
<path id="Vector_4" d="M5.92542 8.80591L0.571899 8.80591L0.571899 47.2655H5.92542L5.92542 8.80591Z" fill="#F8961D"/>
</g>
<g id="Group_7">
<path id="Vector_5" fill-rule="evenodd" clip-rule="evenodd" d="M22.2626 24.2485L1.69012 44.8913C1.01476 45.3817 0.573181 46.181 0.573181 47.0814C0.573181 48.5735 1.77844 49.7828 3.26683 49.7828C3.9214 49.7828 4.52144 49.5492 4.98899 49.1574L4.99938 49.1678L26.0498 28.0449L22.2626 24.2485Z" fill="#E01F27"/>
</g>
<g id="Group_8">
<path id="Vector_6" d="M26.7865 26.4733C27.0989 25.0259 26.1837 23.6011 24.7422 23.291C23.3008 22.9809 21.8791 23.9029 21.5667 25.3503C21.2543 26.7978 22.1695 28.2226 23.611 28.5327C25.0524 28.8428 26.4741 27.9208 26.7865 26.4733Z" fill="#CA2127"/>
</g>
<g id="Group_9">
<path id="Vector_7" fill-rule="evenodd" clip-rule="evenodd" d="M3.25385 6.27856C1.78105 6.27856 0.586182 7.48002 0.586182 8.96173C0.586182 10.4434 1.78105 11.6449 3.25385 11.6449C4.72665 11.6449 5.92152 10.4434 5.92152 8.96173C5.92412 7.48002 4.72925 6.27856 3.25385 6.27856Z" fill="#F8961D"/>
</g>
<g id="Group_10">
<path id="Vector_8" fill-rule="evenodd" clip-rule="evenodd" d="M29.4877 33.5825L25.7057 37.3789L31.4488 43.1449L35.2335 39.3485L29.4877 33.5825Z" fill="#2C9C48"/>
</g>
<g id="Group_11">
<path id="Vector_9" fill-rule="evenodd" clip-rule="evenodd" d="M29.663 33.7798C28.6188 32.7314 26.9304 32.7314 25.8888 33.7772C24.8472 34.8229 24.8498 36.52 25.8914 37.5658C26.9356 38.6141 28.624 38.6141 29.6656 37.5684C30.7098 36.5226 30.7072 34.8255 29.663 33.7798Z" fill="#2C9C48"/>
</g>
<g id="Group_12">
<path id="Vector_10" d="M36.0594 2.96997L30.7085 2.96997L30.7085 41.4218H36.0594L36.0594 2.96997Z" fill="#4CB853"/>
</g>
<g id="Group_13">
<path id="Vector_11" fill-rule="evenodd" clip-rule="evenodd" d="M33.3671 0.452881C32.7125 0.452881 32.1125 0.686426 31.6475 1.07826L31.6371 1.06788L10.5997 22.1855L14.3817 25.9819L34.9412 5.34434C35.6165 4.8539 36.0581 4.05466 36.0581 3.15421C36.0581 1.66212 34.8529 0.452881 33.3671 0.452881Z" fill="#28A992"/>
</g>
<g id="Group_14">
<path id="Vector_12" d="M15.1334 24.3838C15.4258 22.9322 14.491 21.5202 13.0454 21.2299C11.5998 20.9397 10.1909 21.8812 9.89853 23.3328C9.60616 24.7844 10.541 26.1965 11.9866 26.4867C13.4322 26.7769 14.8411 25.8354 15.1334 24.3838Z" fill="#1E9680"/>
</g>
<g id="Group_15">
<path id="Vector_13" fill-rule="evenodd" clip-rule="evenodd" d="M33.3775 38.5854C31.9047 38.5854 30.7098 39.7869 30.7098 41.2686C30.7098 42.7503 31.9047 43.9518 33.3775 43.9518C34.8503 43.9518 36.0452 42.7503 36.0452 41.2686C36.0452 39.7869 34.8503 38.5854 33.3775 38.5854Z" fill="#4CB853"/>
</g>
</g>
</g>
<g id="Group_16">
<path id="Vector_14" d="M83.5559 13.0921L78.7134 6.02713C78.5184 5.74142 78.1349 5.35181 77.6474 5.35181H74.3584C73.9684 5.35181 73.6759 5.64402 73.6759 6.02713V18.2219C73.6759 18.6051 73.9684 18.8973 74.3584 18.8973H77.2639C77.6474 18.8973 77.9399 18.6051 77.9399 18.2219V11.157H78.1349L82.9774 18.2219C83.1724 18.5077 83.5559 18.8973 84.0434 18.8973H87.3324C87.7224 18.8973 88.0149 18.6051 88.0149 18.2219V6.02713C88.0149 5.64402 87.7224 5.35181 87.3324 5.35181H84.4269C84.0434 5.35181 83.7509 5.64402 83.7509 6.02713V13.0921H83.5559Z" fill="white"/>
<path id="Vector_15" d="M98.2784 16.092C96.1464 16.092 94.7944 14.7349 94.7944 12.1245C94.7944 9.51411 96.1464 8.15696 98.2784 8.15696C100.41 8.15696 101.762 9.51411 101.762 12.1245C101.762 14.7349 100.41 16.092 98.2784 16.092ZM98.2784 4.96216C93.1434 4.96216 90.3354 7.77385 90.3354 12.1245C90.3354 16.4816 93.1434 19.2868 98.2784 19.2868C103.413 19.2868 106.221 16.4816 106.221 12.1245C106.221 7.77385 103.413 4.96216 98.2784 4.96216Z" fill="white"/>
<path id="Vector_16" d="M111.22 6.02713C111.064 5.64402 110.732 5.35181 110.349 5.35181H107.248C106.858 5.35181 106.585 5.64402 106.761 6.02713L111.993 18.2219C112.169 18.6051 112.474 18.8973 112.864 18.8973L116.836 18.8778C117.219 18.8778 117.531 18.6051 117.707 18.2219L122.939 6.02713C123.108 5.64402 122.842 5.35181 122.452 5.35181H119.156C118.773 5.35181 118.441 5.64402 118.285 6.02713L114.899 14.8323H114.704L111.22 6.02713Z" fill="white"/>
<path id="Vector_17" d="M134.191 18.2219C134.347 18.6051 134.672 18.8973 135.062 18.8973H138.357C138.741 18.8973 139.014 18.6051 138.838 18.2219L133.417 6.00765C133.242 5.62453 132.93 5.35181 132.546 5.35181H128.575C128.185 5.35181 127.873 5.64402 127.704 6.02713L122.276 18.2219C122.101 18.6051 122.374 18.8973 122.764 18.8973H125.858C126.248 18.8973 126.579 18.6051 126.735 18.2219L127.411 16.4817H133.515L134.191 18.2219ZM130.414 9.41674H130.609L132.156 13.2869H128.763L130.414 9.41674Z" fill="white"/>
<path id="Vector_18" d="M86.2664 31.3972C86.2664 31.0075 85.9804 30.7153 85.5904 30.7153H73.1949C72.8049 30.7153 72.5189 31.0075 72.5189 31.3972V33.3322C72.5189 33.7153 72.8049 34.0075 73.1949 34.0075H77.2639V43.5855C77.2639 43.9751 77.5499 44.2608 77.9399 44.2608H80.8454C81.2354 44.2608 81.5214 43.9751 81.5214 43.5855V34.0075H85.5904C85.9804 34.0075 86.2664 33.7153 86.2664 33.3322V31.3972Z" fill="white"/>
<path id="Vector_19" d="M101.184 31.3972C101.184 31.0075 100.891 30.7153 100.508 30.7153H88.6909C88.3009 30.7153 88.0149 31.0075 88.0149 31.3972V43.5855C88.0149 43.9751 88.3009 44.2608 88.6909 44.2608H100.508C100.891 44.2608 101.184 43.9751 101.184 43.5855V41.6504C101.184 41.2608 100.891 40.9751 100.508 40.9751H92.2724V39.04H98.3759C98.7594 39.04 99.0519 38.7478 99.0519 38.3582V36.4231C99.0519 36.04 98.7594 35.7478 98.3759 35.7478H92.2724V34.0075H100.508C100.891 34.0075 101.184 33.7153 101.184 33.3322V31.3972Z" fill="white"/>
<path id="Vector_20" d="M110.674 30.3323C105.539 30.3323 102.731 33.1375 102.731 37.4881C102.731 41.8453 105.539 44.6505 110.674 44.6505C115.321 44.6505 117.843 42.131 117.843 39.8128C117.843 39.3258 117.551 39.0401 117.07 39.0401H114.645C114.067 39.0401 113.755 39.3258 113.482 39.8128C113.001 40.6829 112.227 41.4557 110.674 41.4557C108.542 41.4557 107.19 40.105 107.19 37.4881C107.19 34.8777 108.542 33.5206 110.674 33.5206C112.13 33.5206 112.806 34.2024 113.287 34.9751C113.579 35.4557 113.872 35.7479 114.45 35.7479H116.875C117.356 35.7479 117.648 35.4557 117.648 34.9751C117.648 32.7479 115.224 30.3323 110.674 30.3323Z" fill="white"/>
<path id="Vector_21" d="M134.113 31.3972C134.113 31.0075 133.82 30.7153 133.437 30.7153H130.531C130.141 30.7153 129.849 31.0075 129.849 31.3972V35.9426H124.233V31.3972C124.233 31.0075 123.94 30.7153 123.557 30.7153H120.651C120.261 30.7153 119.975 31.0075 119.975 31.3972V43.5855C119.975 43.9751 120.261 44.2608 120.651 44.2608H123.557C123.94 44.2608 124.233 43.9751 124.233 43.5855V39.2283H129.849V43.5855C129.849 43.9751 130.141 44.2608 130.531 44.2608H133.437C133.82 44.2608 134.113 43.9751 134.113 43.5855V31.3972Z" fill="white"/>
<path id="Vector_22" d="M146.898 38.4556L142.056 31.3972C141.861 31.1049 141.471 30.7153 140.99 30.7153H137.694C137.311 30.7153 137.018 31.0075 137.018 31.3972V43.5855C137.018 43.9751 137.311 44.2608 137.694 44.2608H140.6C140.99 44.2608 141.282 43.9751 141.282 43.5855V36.5205H141.471L146.313 43.5855C146.508 43.8777 146.898 44.2608 147.379 44.2608H150.675C151.058 44.2608 151.351 43.9751 151.351 43.5855V31.3972C151.351 31.0075 151.058 30.7153 150.675 30.7153H147.769C147.379 30.7153 147.093 31.0075 147.093 31.3972V38.4556H146.898Z" fill="white"/>
<path id="Vector_23" d="M161.621 41.4557C159.489 41.4557 158.13 40.105 158.13 37.4881C158.13 34.8777 159.489 33.5206 161.621 33.5206C163.746 33.5206 165.105 34.8777 165.105 37.4881C165.105 40.105 163.746 41.4557 161.621 41.4557ZM161.621 30.3323C156.486 30.3323 153.678 33.1375 153.678 37.4881C153.678 41.8453 156.486 44.6505 161.621 44.6505C166.749 44.6505 169.557 41.8453 169.557 37.4881C169.557 33.1375 166.749 30.3323 161.621 30.3323Z" fill="white"/>
<path id="Vector_24" d="M184.085 41.6504C184.085 41.2608 183.799 40.9751 183.409 40.9751H176.148V31.3972C176.148 31.0075 175.856 30.7153 175.466 30.7153H172.56C172.177 30.7153 171.884 31.0075 171.884 31.3972V43.5855C171.884 43.9751 172.177 44.2608 172.56 44.2608H183.409C183.799 44.2608 184.085 43.9751 184.085 43.5855V41.6504Z" fill="white"/>
<path id="Vector_25" d="M192.801 41.4557C190.676 41.4557 189.317 40.105 189.317 37.4881C189.317 34.8777 190.676 33.5206 192.801 33.5206C194.933 33.5206 196.292 34.8777 196.292 37.4881C196.292 40.105 194.933 41.4557 192.801 41.4557ZM192.801 30.3323C187.673 30.3323 184.865 33.1375 184.865 37.4881C184.865 41.8453 187.673 44.6505 192.801 44.6505C197.936 44.6505 200.744 41.8453 200.744 37.4881C200.744 33.1375 197.936 30.3323 192.801 30.3323Z" fill="white"/>
<path id="Vector_26" d="M217.696 37.2024C217.696 36.8128 217.404 36.5206 217.014 36.5206H211.261C210.878 36.5206 210.585 36.8128 210.585 37.2024V38.9427C210.585 39.3258 210.878 39.618 211.261 39.618H213.432C213.042 40.5855 212.269 41.4557 210.429 41.4557C208.297 41.4557 206.945 40.105 206.945 37.4881C206.945 34.8777 208.297 33.5206 210.429 33.5206C211.963 33.5206 212.561 34.105 213.042 34.7803C213.335 35.1699 213.725 35.5531 214.206 35.5531H216.63C217.092 35.5531 217.404 35.2673 217.404 34.7803C217.404 32.7479 214.979 30.3323 210.429 30.3323C205.294 30.3323 202.486 33.1375 202.486 37.4881C202.486 41.8453 205.294 44.6505 210.429 44.6505C214.979 44.6505 217.696 41.9427 217.696 38.8453V37.2024Z" fill="white"/>
<path id="Vector_27" d="M233.556 31.3972C233.751 31.1049 233.556 30.7153 233.075 30.7153H230.072C229.487 30.7153 229.084 31.1049 228.909 31.3972L226.003 36.1374H225.808L222.903 31.3972C222.727 31.1049 222.324 30.7153 221.739 30.7153H218.743C218.255 30.7153 218.06 31.1049 218.255 31.3972L223.774 40.0075V43.5855C223.774 43.9751 224.066 44.2608 224.456 44.2608H227.362C227.745 44.2608 228.038 43.9751 228.038 43.5855V40.0075L233.556 31.3972Z" fill="white"/>
</g>
</g>
<defs>
<clipPath id="clip0_57_330">
<rect width="234" height="50" fill="white"/>
</clipPath>
</defs>
</svg>
