<svg width="234" height="50" viewBox="0 0 234 50" fill="none" xmlns="http://www.w3.org/2000/svg">
<g clip-path="url(#clip0_29_105)">
<path d="M61.0909 2.61415V48.4359C61.0909 48.7656 60.7388 48.9854 60.2106 48.9854C59.6823 48.9854 59.3302 48.7656 59.3302 48.4359V2.6691C59.3302 2.33944 59.6823 2.11967 60.2106 2.11967C60.7388 2.11967 61.0909 2.33945 61.0909 2.61415Z" fill="black"/>
<g opacity="0.89">
<path fill-rule="evenodd" clip-rule="evenodd" d="M5.18256 7.08301L1.39795 10.882L7.1437 16.648L10.9283 12.8516L5.18256 7.08301Z" fill="#F6851F"/>
<path fill-rule="evenodd" clip-rule="evenodd" d="M10.7451 12.665C9.70093 11.6167 8.00994 11.6167 6.96832 12.6624C5.92671 13.7082 5.92671 15.4053 6.97092 16.4536C8.01513 17.502 9.70613 17.502 10.7477 16.4562C11.7919 15.4105 11.7893 13.7134 10.7451 12.665Z" fill="#F6851F"/>
<path d="M5.92542 8.80615L0.571899 8.80615L0.571899 47.2658H5.92542L5.92542 8.80615Z" fill="#F8961D"/>
<path fill-rule="evenodd" clip-rule="evenodd" d="M22.2626 24.2488L1.69012 44.8915C1.01476 45.382 0.573181 46.1812 0.573181 47.0817C0.573181 48.5738 1.77844 49.783 3.26683 49.783C3.9214 49.783 4.52144 49.5495 4.98899 49.1576L4.99938 49.168L26.0498 28.0452L22.2626 24.2488Z" fill="#E01F27"/>
<path d="M26.7865 26.4736C27.0989 25.0261 26.1837 23.6013 24.7422 23.2912C23.3008 22.9811 21.8791 23.9031 21.5667 25.3506C21.2543 26.798 22.1695 28.2228 23.611 28.5329C25.0524 28.843 26.4741 27.921 26.7865 26.4736Z" fill="#CA2127"/>
<path fill-rule="evenodd" clip-rule="evenodd" d="M3.25385 6.27881C1.78105 6.27881 0.586182 7.48027 0.586182 8.96198C0.586182 10.4437 1.78105 11.6451 3.25385 11.6451C4.72665 11.6451 5.92152 10.4437 5.92152 8.96198C5.92412 7.48027 4.72925 6.27881 3.25385 6.27881Z" fill="#F8961D"/>
<path fill-rule="evenodd" clip-rule="evenodd" d="M29.4877 33.5828L25.7057 37.3792L31.4488 43.1451L35.2335 39.3487L29.4877 33.5828Z" fill="#2C9C48"/>
<path fill-rule="evenodd" clip-rule="evenodd" d="M29.663 33.78C28.6188 32.7316 26.9304 32.7316 25.8888 33.7774C24.8472 34.8232 24.8498 36.5203 25.8914 37.566C26.9356 38.6144 28.624 38.6144 29.6656 37.5686C30.7098 36.5229 30.7072 34.8258 29.663 33.78Z" fill="#2C9C48"/>
<path d="M36.0594 2.97021L30.7085 2.97021L30.7085 41.4221H36.0594L36.0594 2.97021Z" fill="#4CB853"/>
<path fill-rule="evenodd" clip-rule="evenodd" d="M33.3671 0.453125C32.7125 0.453125 32.1125 0.68667 31.6475 1.07851L31.6371 1.06813L10.5997 22.1858L14.3817 25.9822L34.9412 5.34459C35.6165 4.85415 36.0581 4.0549 36.0581 3.15446C36.0581 1.66237 34.8529 0.453125 33.3671 0.453125Z" fill="#28A992"/>
<path d="M15.1334 24.3841C15.4258 22.9324 14.491 21.5204 13.0454 21.2302C11.5998 20.94 10.1909 21.8814 9.89853 23.3331C9.60616 24.7847 10.541 26.1967 11.9866 26.4869C13.4322 26.7771 14.8411 25.8357 15.1334 24.3841Z" fill="#1E9680"/>
<path fill-rule="evenodd" clip-rule="evenodd" d="M33.3775 38.5857C31.9047 38.5857 30.7098 39.7872 30.7098 41.2689C30.7098 42.7506 31.9047 43.952 33.3775 43.952C34.8503 43.952 36.0452 42.7506 36.0452 41.2689C36.0452 39.7872 34.8503 38.5857 33.3775 38.5857Z" fill="#4CB853"/>
</g>
<path d="M83.5559 13.0923L78.7134 6.02738C78.5184 5.74166 78.1349 5.35205 77.6474 5.35205H74.3584C73.9684 5.35205 73.6759 5.64426 73.6759 6.02738V18.2222C73.6759 18.6053 73.9684 18.8975 74.3584 18.8975H77.2639C77.6474 18.8975 77.9399 18.6053 77.9399 18.2222V11.1572H78.1349L82.9774 18.2222C83.1724 18.5079 83.5559 18.8975 84.0434 18.8975H87.3324C87.7224 18.8975 88.0149 18.6053 88.0149 18.2222V6.02738C88.0149 5.64426 87.7224 5.35205 87.3324 5.35205H84.4269C84.0434 5.35205 83.7509 5.64426 83.7509 6.02738V13.0923H83.5559Z" fill="black"/>
<path d="M98.2784 16.0923C96.1464 16.0923 94.7944 14.7351 94.7944 12.1247C94.7944 9.51435 96.1464 8.15721 98.2784 8.15721C100.41 8.15721 101.762 9.51435 101.762 12.1247C101.762 14.7351 100.41 16.0923 98.2784 16.0923ZM98.2784 4.9624C93.1434 4.9624 90.3354 7.77409 90.3354 12.1247C90.3354 16.4819 93.1434 19.2871 98.2784 19.2871C103.413 19.2871 106.221 16.4819 106.221 12.1247C106.221 7.77409 103.413 4.9624 98.2784 4.9624Z" fill="black"/>
<path d="M111.22 6.02738C111.064 5.64426 110.732 5.35205 110.349 5.35205H107.248C106.858 5.35205 106.585 5.64426 106.761 6.02738L111.993 18.2222C112.169 18.6053 112.474 18.8975 112.864 18.8975L116.836 18.878C117.219 18.878 117.531 18.6053 117.707 18.2222L122.939 6.02738C123.108 5.64426 122.842 5.35205 122.452 5.35205H119.156C118.773 5.35205 118.441 5.64426 118.285 6.02738L114.899 14.8326H114.704L111.22 6.02738Z" fill="black"/>
<path d="M134.191 18.2222C134.347 18.6053 134.672 18.8975 135.062 18.8975H138.357C138.741 18.8975 139.014 18.6053 138.838 18.2222L133.417 6.0079C133.242 5.62478 132.93 5.35205 132.546 5.35205H128.575C128.185 5.35205 127.873 5.64426 127.704 6.02738L122.276 18.2222C122.101 18.6053 122.374 18.8975 122.764 18.8975H125.858C126.248 18.8975 126.579 18.6053 126.735 18.2222L127.411 16.4819H133.515L134.191 18.2222ZM130.414 9.41699H130.609L132.156 13.2871H128.763L130.414 9.41699Z" fill="black"/>
<path d="M86.2664 31.3974C86.2664 31.0078 85.9804 30.7156 85.5904 30.7156H73.1949C72.8049 30.7156 72.5189 31.0078 72.5189 31.3974V33.3325C72.5189 33.7156 72.8049 34.0078 73.1949 34.0078H77.2639V43.5857C77.2639 43.9753 77.5499 44.261 77.9399 44.261H80.8454C81.2354 44.261 81.5214 43.9753 81.5214 43.5857V34.0078H85.5904C85.9804 34.0078 86.2664 33.7156 86.2664 33.3325V31.3974Z" fill="black"/>
<path d="M101.184 31.3974C101.184 31.0078 100.891 30.7156 100.508 30.7156H88.6909C88.3009 30.7156 88.0149 31.0078 88.0149 31.3974V43.5857C88.0149 43.9753 88.3009 44.261 88.6909 44.261H100.508C100.891 44.261 101.184 43.9753 101.184 43.5857V41.6506C101.184 41.261 100.891 40.9753 100.508 40.9753H92.2724V39.0403H98.3759C98.7594 39.0403 99.0519 38.748 99.0519 38.3584V36.4234C99.0519 36.0403 98.7594 35.748 98.3759 35.748H92.2724V34.0078H100.508C100.891 34.0078 101.184 33.7156 101.184 33.3325V31.3974Z" fill="black"/>
<path d="M110.674 30.3325C105.539 30.3325 102.731 33.1377 102.731 37.4884C102.731 41.8455 105.539 44.6507 110.674 44.6507C115.321 44.6507 117.843 42.1312 117.843 39.813C117.843 39.326 117.551 39.0403 117.07 39.0403H114.645C114.067 39.0403 113.755 39.326 113.482 39.813C113.001 40.6832 112.227 41.4559 110.674 41.4559C108.542 41.4559 107.19 40.1052 107.19 37.4884C107.19 34.878 108.542 33.5208 110.674 33.5208C112.13 33.5208 112.806 34.2026 113.287 34.9754C113.579 35.4559 113.872 35.7481 114.45 35.7481H116.875C117.356 35.7481 117.648 35.4559 117.648 34.9754C117.648 32.7481 115.224 30.3325 110.674 30.3325Z" fill="black"/>
<path d="M134.113 31.3974C134.113 31.0078 133.82 30.7156 133.437 30.7156H130.531C130.141 30.7156 129.849 31.0078 129.849 31.3974V35.9428H124.233V31.3974C124.233 31.0078 123.94 30.7156 123.557 30.7156H120.651C120.261 30.7156 119.975 31.0078 119.975 31.3974V43.5857C119.975 43.9753 120.261 44.261 120.651 44.261H123.557C123.94 44.261 124.233 43.9753 124.233 43.5857V39.2286H129.849V43.5857C129.849 43.9753 130.141 44.261 130.531 44.261H133.437C133.82 44.261 134.113 43.9753 134.113 43.5857V31.3974Z" fill="black"/>
<path d="M146.898 38.4558L142.056 31.3974C141.861 31.1052 141.471 30.7156 140.99 30.7156H137.694C137.311 30.7156 137.018 31.0078 137.018 31.3974V43.5857C137.018 43.9753 137.311 44.261 137.694 44.261H140.6C140.99 44.261 141.282 43.9753 141.282 43.5857V36.5208H141.471L146.313 43.5857C146.508 43.8779 146.898 44.261 147.379 44.261H150.675C151.058 44.261 151.351 43.9753 151.351 43.5857V31.3974C151.351 31.0078 151.058 30.7156 150.675 30.7156H147.769C147.379 30.7156 147.093 31.0078 147.093 31.3974V38.4558H146.898Z" fill="black"/>
<path d="M161.621 41.4559C159.489 41.4559 158.13 40.1052 158.13 37.4884C158.13 34.878 159.489 33.5208 161.621 33.5208C163.746 33.5208 165.105 34.878 165.105 37.4884C165.105 40.1052 163.746 41.4559 161.621 41.4559ZM161.621 30.3325C156.486 30.3325 153.678 33.1377 153.678 37.4884C153.678 41.8455 156.486 44.6507 161.621 44.6507C166.749 44.6507 169.557 41.8455 169.557 37.4884C169.557 33.1377 166.749 30.3325 161.621 30.3325Z" fill="black"/>
<path d="M184.085 41.6506C184.085 41.261 183.799 40.9753 183.409 40.9753H176.148V31.3974C176.148 31.0078 175.856 30.7156 175.466 30.7156H172.56C172.177 30.7156 171.884 31.0078 171.884 31.3974V43.5857C171.884 43.9753 172.177 44.261 172.56 44.261H183.409C183.799 44.261 184.085 43.9753 184.085 43.5857V41.6506Z" fill="black"/>
<path d="M192.801 41.4559C190.676 41.4559 189.317 40.1052 189.317 37.4884C189.317 34.878 190.676 33.5208 192.801 33.5208C194.933 33.5208 196.292 34.878 196.292 37.4884C196.292 40.1052 194.933 41.4559 192.801 41.4559ZM192.801 30.3325C187.673 30.3325 184.865 33.1377 184.865 37.4884C184.865 41.8455 187.673 44.6507 192.801 44.6507C197.936 44.6507 200.744 41.8455 200.744 37.4884C200.744 33.1377 197.936 30.3325 192.801 30.3325Z" fill="black"/>
<path d="M217.696 37.2026C217.696 36.813 217.404 36.5208 217.014 36.5208H211.261C210.878 36.5208 210.585 36.813 210.585 37.2026V38.9429C210.585 39.326 210.878 39.6182 211.261 39.6182H213.432C213.042 40.5858 212.269 41.4559 210.429 41.4559C208.297 41.4559 206.945 40.1052 206.945 37.4884C206.945 34.878 208.297 33.5208 210.429 33.5208C211.963 33.5208 212.561 34.1052 213.042 34.7806C213.335 35.1702 213.725 35.5533 214.206 35.5533H216.63C217.092 35.5533 217.404 35.2676 217.404 34.7806C217.404 32.7481 214.979 30.3325 210.429 30.3325C205.294 30.3325 202.486 33.1377 202.486 37.4884C202.486 41.8455 205.294 44.6507 210.429 44.6507C214.979 44.6507 217.696 41.9429 217.696 38.8455V37.2026Z" fill="black"/>
<path d="M233.556 31.3974C233.751 31.1052 233.556 30.7156 233.075 30.7156H230.072C229.487 30.7156 229.084 31.1052 228.909 31.3974L226.003 36.1377H225.808L222.903 31.3974C222.727 31.1052 222.324 30.7156 221.739 30.7156H218.743C218.255 30.7156 218.06 31.1052 218.255 31.3974L223.774 40.0078V43.5857C223.774 43.9753 224.066 44.261 224.456 44.261H227.362C227.745 44.261 228.038 43.9753 228.038 43.5857V40.0078L233.556 31.3974Z" fill="black"/>
</g>
<defs>
<clipPath id="clip0_29_105">
<rect width="234" height="50" fill="white"/>
</clipPath>
</defs>
</svg>
